<?xml version="1.0" encoding="UTF-8" standalone="no"?>
<!-- Created with Inkscape (http://www.inkscape.org/) -->

<svg
   xmlns:osb="http://www.openswatchbook.org/uri/2009/osb"
   xmlns:dc="http://purl.org/dc/elements/1.1/"
   xmlns:cc="http://creativecommons.org/ns#"
   xmlns:rdf="http://www.w3.org/1999/02/22-rdf-syntax-ns#"
   xmlns:svg="http://www.w3.org/2000/svg"
   xmlns="http://www.w3.org/2000/svg"
   xmlns:xlink="http://www.w3.org/1999/xlink"
   xmlns:sodipodi="http://sodipodi.sourceforge.net/DTD/sodipodi-0.dtd"
   xmlns:inkscape="http://www.inkscape.org/namespaces/inkscape"
   width="200"
   height="200"
   id="svg2"
   version="1.1"
   inkscape:version="0.48.5 r10040"
   sodipodi:docname="tidal1.png">
  <defs
     id="defs4">
    <linearGradient
       id="linearGradient3992"
       osb:paint="solid">
      <stop
         style="stop-color:#ffffff;stop-opacity:1;"
         offset="0"
         id="stop3994" />
    </linearGradient>
    <inkscape:path-effect
       effect="spiro"
       id="path-effect3814"
       is_visible="true" />
    <inkscape:path-effect
       effect="spiro"
       id="path-effect3808"
       is_visible="true" />
    <inkscape:path-effect
       effect="spiro"
       id="path-effect3036"
       is_visible="true" />
    <linearGradient
       id="linearGradient3764"
       osb:paint="solid">
      <stop
         style="stop-color:#ffffff;stop-opacity:1;"
         offset="0"
         id="stop3766" />
    </linearGradient>
    <linearGradient
       inkscape:collect="always"
       xlink:href="#linearGradient3764"
       id="linearGradient3768"
       x1="25"
       y1="115"
       x2="65"
       y2="115"
       gradientUnits="userSpaceOnUse" />
  </defs>
  <sodipodi:namedview
     id="base"
     pagecolor="#ffffff"
     bordercolor="#666666"
     borderopacity="1.0"
     inkscape:pageopacity="0.0"
     inkscape:pageshadow="2"
     inkscape:zoom="2.71"
     inkscape:cx="16.296954"
     inkscape:cy="99.488963"
     inkscape:document-units="px"
     inkscape:current-layer="layer1"
     showgrid="true"
     inkscape:window-width="1600"
     inkscape:window-height="838"
     inkscape:window-x="-8"
     inkscape:window-y="-8"
     inkscape:window-maximized="1">
    <inkscape:grid
       type="xygrid"
       id="grid2989"
       empspacing="5"
       visible="true"
       enabled="true"
       snapvisiblegridlinesonly="true" />
  </sodipodi:namedview>
  <metadata
     id="metadata7">
    <rdf:RDF>
      <cc:Work
         rdf:about="">
        <dc:format>image/svg+xml</dc:format>
        <dc:type
           rdf:resource="http://purl.org/dc/dcmitype/StillImage" />
        <dc:title></dc:title>
      </cc:Work>
    </rdf:RDF>
  </metadata>
  <g
     inkscape:label="Layer 1"
     inkscape:groupmode="layer"
     id="layer1"
     transform="translate(0,-852.36217)">
    <path
       style="fill:none;stroke:#000000;stroke-width:2.90022612;stroke-linecap:butt;stroke-linejoin:miter;stroke-miterlimit:4;stroke-opacity:1;stroke-dasharray:none"
       d="m 54.41839,936.24367 c 0,0 -2.805708,-5.05469 -3.238344,-7.66457 -0.611838,-3.69091 -1.336483,-3.66788 -1.54676,-7.5924 -0.199487,-3.72313 -0.06132,-7.55722 0.21723,-11.28035 0.382831,-5.11693 2.513155,-14.20809 3.745214,-18.65622 0.422591,-1.52569 0.966572,-3.72196 1.76399,-3.68795 0.797414,0.034 1.25599,2.27306 1.619171,3.8323 1.05885,4.54586 2.835827,13.80372 3.021109,18.9449 0.134815,3.74076 0.125207,7.58034 -0.217229,11.28035 -0.360954,3.90014 -1.083528,3.81537 -1.8364,7.44805 -0.532364,2.56871 -3.527981,7.37589 -3.527981,7.37589 z"
       id="path4432"
       inkscape:connector-curvature="0"
       sodipodi:nodetypes="cssssassssc" />
    <path
       style="fill:none;stroke:#000000;stroke-width:3;stroke-linecap:butt;stroke-linejoin:miter;stroke-miterlimit:4;stroke-opacity:1;stroke-dasharray:none"
       d="m 95,100 -5,75 25,0 -5,-75 z"
       id="path4515"
       inkscape:connector-curvature="0"
       transform="translate(0,852.36217)"
       sodipodi:nodetypes="ccccc" />
    <path
       style="fill:none;stroke:#000000;stroke-width:3;stroke-linecap:butt;stroke-linejoin:miter;stroke-opacity:1;stroke-miterlimit:4;stroke-dasharray:none"
       d="m 60,175 c 80,0 80,0 80,0"
       id="path4517"
       inkscape:connector-curvature="0"
       transform="translate(0,852.36217)" />
    <path
       style="fill:none;stroke:#000000;stroke-width:2.90022612;stroke-linecap:butt;stroke-linejoin:miter;stroke-miterlimit:4;stroke-opacity:1;stroke-dasharray:none"
       d="m 54.680921,938.47687 c 0,0 2.971775,4.97111 3.490644,7.56723 0.733788,3.67145 1.457323,3.62746 1.797479,7.54401 0.322702,3.71556 0.311586,7.55183 0.15648,11.28123 -0.213174,5.12555 -2.041378,14.27398 -3.125524,18.75562 -0.371857,1.5372 -0.842837,3.74814 -1.640999,3.73721 -0.798159,-0.0109 -1.330673,-2.23564 -1.745321,-3.78361 -1.208902,-4.51306 -3.291649,-13.71507 -3.647118,-18.84843 -0.258645,-3.73507 -0.376209,-7.57309 -0.156481,-11.28123 0.231608,-3.90872 0.956643,-3.84488 1.58884,-7.49761 0.447033,-2.58287 3.282,-7.47442 3.282,-7.47442 z"
       id="path4432-1"
       inkscape:connector-curvature="0"
       sodipodi:nodetypes="cssssassssc" />
    <path
       style="fill:#fffefe;stroke:#000000;stroke-width:2.59873581000000000;stroke-linecap:butt;stroke-linejoin:miter;stroke-miterlimit:4;stroke-opacity:1;stroke-dasharray:none;fill-opacity:1"
       d="m 45,937.35455 c 0,-1.76866 3.087884,-2.71774 5,-3.75189 6.046642,-3.2703 12.911794,-5.77421 20,-7.50381 9.641003,-2.35253 19.896606,-3.12445 30,-3.75191 3.32198,-0.2063 10,0 10,0 l 25,0 c 0,0 15.77098,-0.31248 20,3.75191 6.15412,5.91453 6.15412,16.59688 0,22.51142 -4.22902,4.06438 -20,3.7519 -20,3.7519 l -20,0 -15,0 c 0,0 -20.358997,-1.39938 -30,-3.7519 -7.088206,-1.7296 -20,-7.50381 -20,-7.50381 0,0 -5,-1.98324 -5,-3.75191 z"
       id="path4596"
       inkscape:connector-curvature="0"
       sodipodi:nodetypes="ssssccsscccscs" />
    <path
       style="fill:none;stroke:#000000;stroke-width:2.59807611;stroke-linecap:butt;stroke-linejoin:miter;stroke-miterlimit:4;stroke-opacity:1;stroke-dasharray:none"
       d="m 60,930.36217 0,15"
       id="path4598"
       inkscape:connector-curvature="0" />
    <path
       style="fill:none;stroke:#000000;stroke-width:1.04446578px;stroke-linecap:butt;stroke-linejoin:miter;stroke-opacity:1"
       d="m 10,879.36217 c 0,0 15.970555,-0.70009 21.818182,-5 3.171321,-2.33196 3.181818,-2 5.454545,-10 -2.272727,-2 15.891276,0.6536 21.818182,5 10.909091,8 5.953095,8.74165 10.909091,10 7.224542,1.83433 15.970555,-0.70009 21.818182,-5 3.171321,-2.33196 3.181818,-7 5.454545,-10 2.042255,-2.69578 15.891273,0.6536 21.818183,5 10.90909,8 5.95309,8.74165 10.90909,10 7.22455,1.83433 15.97056,-0.70009 21.81818,-5 3.17132,-2.33196 3.18182,-7 5.45455,-10 2.04226,-2.69577 17.45142,-0.91193 21.81818,5 5.90909,8 10.90909,10 10.90909,10"
       id="path4600"
       inkscape:connector-curvature="0"
       sodipodi:nodetypes="cscsssssssssc" />
    <path
       style="fill:none;stroke:#000000;stroke-width:1px;stroke-linecap:butt;stroke-linejoin:miter;stroke-opacity:1"
       d="m 30,45 55,0"
       id="path4602"
       inkscape:connector-curvature="0"
       transform="translate(0,852.36217)" />
    <path
       style="fill:none;stroke:#000000;stroke-width:1px;stroke-linecap:butt;stroke-linejoin:miter;stroke-opacity:1"
       d="m 75,40 10,5 -10,5"
       id="path4604"
       inkscape:connector-curvature="0"
       transform="translate(0,852.36217)" />
    <path
       style="fill:none;stroke:#000000;stroke-width:1px;stroke-linecap:butt;stroke-linejoin:miter;stroke-opacity:1"
       d="m 30,125 55,0"
       id="path4606"
       inkscape:connector-curvature="0"
       transform="translate(0,852.36217)" />
    <path
       style="fill:none;stroke:#000000;stroke-width:1px;stroke-linecap:butt;stroke-linejoin:miter;stroke-opacity:1"
       d="m 75,120 10,5 -10,5"
       id="path4608"
       inkscape:connector-curvature="0"
       transform="translate(0,852.36217)" />
    <path
       style="fill:none;stroke:#000000;stroke-width:1px;stroke-linecap:butt;stroke-linejoin:miter;stroke-opacity:1"
       d="m 118,898.36217 55,0"
       id="path4602-1"
       inkscape:connector-curvature="0" />
    <path
       style="fill:none;stroke:#000000;stroke-width:1px;stroke-linecap:butt;stroke-linejoin:miter;stroke-opacity:1"
       d="m 163,893.36217 10,5 -10,5"
       id="path4604-5"
       inkscape:connector-curvature="0" />
  </g>
</svg>
