<?xml version="1.0" encoding="UTF-8" standalone="no"?>
<!-- Created with Inkscape (http://www.inkscape.org/) -->

<svg
   xmlns:osb="http://www.openswatchbook.org/uri/2009/osb"
   xmlns:dc="http://purl.org/dc/elements/1.1/"
   xmlns:cc="http://creativecommons.org/ns#"
   xmlns:rdf="http://www.w3.org/1999/02/22-rdf-syntax-ns#"
   xmlns:svg="http://www.w3.org/2000/svg"
   xmlns="http://www.w3.org/2000/svg"
   xmlns:xlink="http://www.w3.org/1999/xlink"
   xmlns:sodipodi="http://sodipodi.sourceforge.net/DTD/sodipodi-0.dtd"
   xmlns:inkscape="http://www.inkscape.org/namespaces/inkscape"
   width="200"
   height="200"
   id="svg2"
   version="1.1"
   inkscape:version="0.48.5 r10040"
   sodipodi:docname="fan2.png">
  <defs
     id="defs4">
    <linearGradient
       id="linearGradient3992"
       osb:paint="solid">
      <stop
         style="stop-color:#ffffff;stop-opacity:1;"
         offset="0"
         id="stop3994" />
    </linearGradient>
    <inkscape:path-effect
       effect="spiro"
       id="path-effect3814"
       is_visible="true" />
    <inkscape:path-effect
       effect="spiro"
       id="path-effect3808"
       is_visible="true" />
    <inkscape:path-effect
       effect="spiro"
       id="path-effect3036"
       is_visible="true" />
    <linearGradient
       id="linearGradient3764"
       osb:paint="solid">
      <stop
         style="stop-color:#ffffff;stop-opacity:1;"
         offset="0"
         id="stop3766" />
    </linearGradient>
    <linearGradient
       inkscape:collect="always"
       xlink:href="#linearGradient3764"
       id="linearGradient3768"
       x1="25"
       y1="115"
       x2="65"
       y2="115"
       gradientUnits="userSpaceOnUse" />
  </defs>
  <sodipodi:namedview
     id="base"
     pagecolor="#ffffff"
     bordercolor="#666666"
     borderopacity="1.0"
     inkscape:pageopacity="0.0"
     inkscape:pageshadow="2"
     inkscape:zoom="2.71"
     inkscape:cx="16.296954"
     inkscape:cy="99.488963"
     inkscape:document-units="px"
     inkscape:current-layer="layer1"
     showgrid="true"
     inkscape:window-width="1600"
     inkscape:window-height="838"
     inkscape:window-x="-8"
     inkscape:window-y="-8"
     inkscape:window-maximized="1">
    <inkscape:grid
       type="xygrid"
       id="grid2989"
       empspacing="5"
       visible="true"
       enabled="true"
       snapvisiblegridlinesonly="true" />
  </sodipodi:namedview>
  <metadata
     id="metadata7">
    <rdf:RDF>
      <cc:Work
         rdf:about="">
        <dc:format>image/svg+xml</dc:format>
        <dc:type
           rdf:resource="http://purl.org/dc/dcmitype/StillImage" />
        <dc:title></dc:title>
      </cc:Work>
    </rdf:RDF>
  </metadata>
  <g
     inkscape:label="Layer 1"
     inkscape:groupmode="layer"
     id="layer1"
     transform="translate(0,-852.36217)">
    <path
       sodipodi:type="arc"
       style="fill:#fffbfe;fill-opacity:1;fill-rule:nonzero;stroke:#010101;stroke-width:2.89285725;stroke-linecap:round;stroke-linejoin:round;stroke-miterlimit:4;stroke-opacity:1;stroke-dasharray:none"
       id="path3831"
       sodipodi:cx="102.5"
       sodipodi:cy="102.5"
       sodipodi:rx="67.5"
       sodipodi:ry="67.5"
       d="M 170,102.5 C 170,139.77922 139.77922,170 102.5,170 65.220779,170 35,139.77922 35,102.5 35,65.220779 65.220779,35 102.5,35 139.77922,35 170,65.220779 170,102.5 z"
       transform="matrix(1.037037,0,0,1.037037,-6.2962979,846.06587)" />
    <path
       style="fill:#808080;stroke:#000000;stroke-width:3;stroke-linecap:butt;stroke-linejoin:miter;stroke-miterlimit:4;stroke-opacity:1;stroke-dasharray:none;fill-opacity:1"
       d="m 100,954.36217 c 0,0 -1.744439,-28.37812 5,-40 4.18272,-7.20758 11.83156,-13.35046 20,-15 6.73587,-1.36025 14.63968,0.7001 20,5 2.90704,2.33195 5,6.27322 5,10 0,3.72678 -2.09296,7.66805 -5,10 -5.36032,4.2999 -13.7156,2.21997 -20,5 -5.49555,2.43106 -10.75082,5.75082 -15,10 -4.24918,4.24918 -10,15 -10,15 z"
       id="path3833"
       inkscape:connector-curvature="0"
       sodipodi:nodetypes="csssssssc" />
    <path
       style="fill:#808080;stroke:#000000;stroke-width:2.97191834000000020;stroke-linecap:butt;stroke-linejoin:miter;stroke-miterlimit:4;stroke-opacity:1;stroke-dasharray:none;fill-opacity:1"
       d="m 99.4466,951.94991 c 0,0 26.90883,5.69769 35.94493,15.33054 5.60393,5.97404 9.2937,15.06231 8.65804,23.48659 -0.52419,6.94684 -4.5466,14.14416 -9.97945,18.26796 -2.94634,2.2363 -7.17585,3.2561 -10.64873,2.2836 -3.47289,-0.9723 -6.58892,-4.0491 -7.98872,-7.5024 -2.5811,-6.36775 1.57965,-14.00172 0.6607,-20.87722 -0.80363,-6.01244 -2.49929,-12.02164 -5.3287,-17.28876 -2.82939,-5.26715 -11.31808,-13.70031 -11.31808,-13.70031 z"
       id="path3833-4"
       inkscape:connector-curvature="0"
       sodipodi:nodetypes="csssssssc" />
    <path
       style="fill:#808080;stroke:#000000;stroke-width:3;stroke-linecap:butt;stroke-linejoin:miter;stroke-miterlimit:4;stroke-opacity:1;stroke-dasharray:none;fill-opacity:1"
       d="m 101.11003,951.37817 c 0,0 -20.858224,19.32085 -34.123831,21.46076 -8.226983,1.32712 -17.824898,-0.70256 -24.274297,-5.97984 -5.318316,-4.35175 -8.72891,-11.77355 -8.795538,-18.64507 -0.03613,-3.7266 1.688777,-7.84227 4.573074,-10.2023 2.884296,-2.36002 7.259986,-3.23606 10.905687,-2.46292 6.722339,1.42559 10.403678,9.2092 16.534917,12.31245 5.361609,2.71372 11.258857,4.6787 17.2383,5.27646 5.979448,0.59776 17.941688,-1.75954 17.941688,-1.75954 z"
       id="path3833-9"
       inkscape:connector-curvature="0"
       sodipodi:nodetypes="csssssssc" />
    <path
       sodipodi:type="arc"
       style="fill:#fffbfe;fill-opacity:1;fill-rule:nonzero;stroke:#010101;stroke-width:3;stroke-linecap:round;stroke-linejoin:round;stroke-miterlimit:4;stroke-opacity:1;stroke-dasharray:none"
       id="path3896"
       sodipodi:cx="102.5"
       sodipodi:cy="102.5"
       sodipodi:rx="12.5"
       sodipodi:ry="12.5"
       d="m 115,102.5 c 0,6.90356 -5.59644,12.5 -12.5,12.5 C 95.596441,115 90,109.40356 90,102.5 90,95.596441 95.596441,90 102.5,90 c 6.90356,0 12.5,5.596441 12.5,12.5 z"
       transform="matrix(0.8,0,0,0.8,18,870.36217)" />
  </g>
</svg>
