<?xml version="1.0" encoding="UTF-8" standalone="no"?>
<!-- Created with Inkscape (http://www.inkscape.org/) -->

<svg
   xmlns:osb="http://www.openswatchbook.org/uri/2009/osb"
   xmlns:dc="http://purl.org/dc/elements/1.1/"
   xmlns:cc="http://creativecommons.org/ns#"
   xmlns:rdf="http://www.w3.org/1999/02/22-rdf-syntax-ns#"
   xmlns:svg="http://www.w3.org/2000/svg"
   xmlns="http://www.w3.org/2000/svg"
   xmlns:xlink="http://www.w3.org/1999/xlink"
   xmlns:sodipodi="http://sodipodi.sourceforge.net/DTD/sodipodi-0.dtd"
   xmlns:inkscape="http://www.inkscape.org/namespaces/inkscape"
   width="200"
   height="200"
   id="svg2"
   version="1.1"
   inkscape:version="0.48.5 r10040"
   sodipodi:docname="ship1.png">
  <defs
     id="defs4">
    <linearGradient
       id="linearGradient3992"
       osb:paint="solid">
      <stop
         style="stop-color:#ffffff;stop-opacity:1;"
         offset="0"
         id="stop3994" />
    </linearGradient>
    <inkscape:path-effect
       effect="spiro"
       id="path-effect3814"
       is_visible="true" />
    <inkscape:path-effect
       effect="spiro"
       id="path-effect3808"
       is_visible="true" />
    <inkscape:path-effect
       effect="spiro"
       id="path-effect3036"
       is_visible="true" />
    <linearGradient
       id="linearGradient3764"
       osb:paint="solid">
      <stop
         style="stop-color:#ffffff;stop-opacity:1;"
         offset="0"
         id="stop3766" />
    </linearGradient>
    <linearGradient
       inkscape:collect="always"
       xlink:href="#linearGradient3764"
       id="linearGradient3768"
       x1="25"
       y1="115"
       x2="65"
       y2="115"
       gradientUnits="userSpaceOnUse" />
  </defs>
  <sodipodi:namedview
     id="base"
     pagecolor="#ffffff"
     bordercolor="#666666"
     borderopacity="1.0"
     inkscape:pageopacity="0.0"
     inkscape:pageshadow="2"
     inkscape:zoom="2.71"
     inkscape:cx="16.296954"
     inkscape:cy="99.488963"
     inkscape:document-units="px"
     inkscape:current-layer="layer1"
     showgrid="true"
     inkscape:window-width="1600"
     inkscape:window-height="838"
     inkscape:window-x="-8"
     inkscape:window-y="-8"
     inkscape:window-maximized="1">
    <inkscape:grid
       type="xygrid"
       id="grid2989"
       empspacing="5"
       visible="true"
       enabled="true"
       snapvisiblegridlinesonly="true" />
  </sodipodi:namedview>
  <metadata
     id="metadata7">
    <rdf:RDF>
      <cc:Work
         rdf:about="">
        <dc:format>image/svg+xml</dc:format>
        <dc:type
           rdf:resource="http://purl.org/dc/dcmitype/StillImage" />
        <dc:title></dc:title>
      </cc:Work>
    </rdf:RDF>
  </metadata>
  <g
     inkscape:label="Layer 1"
     inkscape:groupmode="layer"
     id="layer1"
     transform="translate(0,-852.36217)">
    <path
       style="fill:none;stroke:#000000;stroke-width:3.47158885;stroke-linecap:butt;stroke-linejoin:miter;stroke-miterlimit:4;stroke-opacity:1;stroke-dasharray:none"
       d="m 20,937.36217 8.901097,11 c 0,0 7.785413,3.38509 11.159195,6 2.133767,1.65383 2.341206,15.38689 3.347758,18 1.42348,3.69553 2.231839,12 2.231839,12 l 42.40494,0 39.057191,0 c 0,0 19.94835,-5.44855 27.89798,-12 7.38103,-6.08287 12.4229,-15.1422 16.73879,-24 5.4592,-11.20431 11.15919,-36 11.15919,-36 l -39.05717,0 -3.84081,10 -120,0 z"
       id="path2999"
       inkscape:connector-curvature="0"
       sodipodi:nodetypes="ccsscccssccccc" />
    <path
       style="fill:none;stroke:#000000;stroke-width:3.47158885;stroke-linecap:butt;stroke-linejoin:miter;stroke-miterlimit:4;stroke-opacity:1;stroke-dasharray:none"
       d="m 65,922.36217 0,-35 45,0 10,35"
       id="path3001"
       inkscape:connector-curvature="0"
       sodipodi:nodetypes="cccc" />
    <path
       style="fill:#000000;fill-opacity:1;stroke:#000000;stroke-width:1.13335586px;stroke-linecap:butt;stroke-linejoin:miter;stroke-opacity:1"
       d="m 14.214299,955.87446 c 0.446436,-2.22775 2.654151,-5.02223 5.785701,-5.24435 3.131547,-0.22206 6.274941,2.19291 7.500338,4.30211 3.572612,6.14926 -3.213741,19.56392 -3.213741,19.56392 0,0 -6.786345,13.41467 -3.213734,19.56389 1.225387,2.10937 4.368783,4.52427 7.500336,4.30217 3.131553,-0.2221 5.339261,-3.01651 5.785694,-5.24433 1.301576,-6.495 -10.072296,-18.62173 -10.072296,-18.62173 0,0 -11.373872,-12.12669 -10.072298,-18.62168 z"
       id="path3005"
       inkscape:connector-curvature="0"
       sodipodi:nodetypes="ssscssscs" />
    <rect
       style="fill:#fcfefc;fill-opacity:1;fill-rule:nonzero;stroke:#010101;stroke-width:1.33817244;stroke-linecap:round;stroke-linejoin:round;stroke-miterlimit:4;stroke-opacity:1;stroke-dasharray:none"
       id="rect3007"
       width="63.203175"
       height="7.0831318"
       x="-115.8272"
       y="961.90924"
       transform="matrix(0.98672801,-0.16238173,0.14432009,0.98953106,0,0)" />
    <rect
       style="fill:#fcfffc;fill-opacity:1;fill-rule:nonzero;stroke:#010101;stroke-width:3.47168374;stroke-linecap:round;stroke-linejoin:round;stroke-miterlimit:4;stroke-opacity:1;stroke-dasharray:none"
       id="rect3807"
       width="27.909319"
       height="17.993677"
       x="-22.396645"
       y="949.37549"
       transform="matrix(0.99040222,-0.1382152,0.12785367,0.99179304,0,0)" />
    <path
       style="fill:none;stroke:#000000;stroke-width:1px;stroke-linecap:butt;stroke-linejoin:miter;stroke-opacity:1"
       d="m 125,125 c 0,0 14.92972,-16.46754 25,-20 7.86357,-2.75839 17.02423,-2.41487 25,0 5.75141,1.74139 9.24859,8.25861 15,10 1.59515,0.48297 5,0 5,0"
       id="path3811"
       inkscape:connector-curvature="0"
       transform="translate(0,852.36217)"
       sodipodi:nodetypes="csssc" />
    <path
       style="fill:none;stroke:#000000;stroke-width:1.05581152px;stroke-linecap:butt;stroke-linejoin:miter;stroke-opacity:1"
       d="m 130,992.36217 c 0,0 14.07659,-19.46954 23.57143,-23.64596 7.41422,-3.26124 16.05142,-2.85509 23.57143,0 5.42276,2.05884 8.7201,9.76414 14.14285,11.82298 1.504,0.57102 4.71429,0 4.71429,0"
       id="path3811-7"
       inkscape:connector-curvature="0"
       sodipodi:nodetypes="csssc" />
    <rect
       style="fill:#040101;fill-opacity:1;fill-rule:nonzero;stroke:#010101;stroke-width:3;stroke-linecap:round;stroke-linejoin:round;stroke-miterlimit:4;stroke-opacity:1;stroke-dasharray:none"
       id="rect3920"
       width="15"
       height="30"
       x="-83.236565"
       y="947.02374"
       transform="matrix(0.98443812,-0.17573159,0.17573159,0.98443812,0,0)" />
  </g>
</svg>
